<svg xmlns="http://www.w3.org/2000/svg" viewBox="0 0 1200 630" width="1200" height="630">
  <defs></defs>
  <rect width="1200" height="630" fill="#14110E"></rect>
  <line x1="100" y1="0" x2="100" y2="630" stroke="rgba(245,243,238,0.08)" stroke-width="1"></line><line x1="200" y1="0" x2="200" y2="630" stroke="rgba(245,243,238,0.08)" stroke-width="1"></line><line x1="300" y1="0" x2="300" y2="630" stroke="rgba(245,243,238,0.08)" stroke-width="1"></line><line x1="400" y1="0" x2="400" y2="630" stroke="rgba(245,243,238,0.08)" stroke-width="1"></line><line x1="500" y1="0" x2="500" y2="630" stroke="rgba(245,243,238,0.08)" stroke-width="1"></line><line x1="600" y1="0" x2="600" y2="630" stroke="rgba(245,243,238,0.08)" stroke-width="1"></line><line x1="700" y1="0" x2="700" y2="630" stroke="rgba(245,243,238,0.08)" stroke-width="1"></line><line x1="800" y1="0" x2="800" y2="630" stroke="rgba(245,243,238,0.08)" stroke-width="1"></line><line x1="900" y1="0" x2="900" y2="630" stroke="rgba(245,243,238,0.08)" stroke-width="1"></line><line x1="1000" y1="0" x2="1000" y2="630" stroke="rgba(245,243,238,0.08)" stroke-width="1"></line><line x1="1100" y1="0" x2="1100" y2="630" stroke="rgba(245,243,238,0.08)" stroke-width="1"></line><line x1="0" y1="100" x2="1200" y2="100" stroke="rgba(245,243,238,0.08)" stroke-width="1"></line><line x1="0" y1="200" x2="1200" y2="200" stroke="rgba(245,243,238,0.08)" stroke-width="1"></line><line x1="0" y1="300" x2="1200" y2="300" stroke="rgba(245,243,238,0.08)" stroke-width="1"></line><line x1="0" y1="400" x2="1200" y2="400" stroke="rgba(245,243,238,0.08)" stroke-width="1"></line><line x1="0" y1="500" x2="1200" y2="500" stroke="rgba(245,243,238,0.08)" stroke-width="1"></line><line x1="0" y1="600" x2="1200" y2="600" stroke="rgba(245,243,238,0.08)" stroke-width="1"></line>
  <text class="meta" x="80" y="100" font-size="22" fill="rgba(245,243,238,0.55)">RYGO DAILY · #042</text>
  <text class="meta" text-anchor="end" x="1120" y="100" font-size="22" fill="rgba(245,243,238,0.55)">MAY 02 · 2026</text>

  <g transform="translate(80, 173)">
    <svg viewBox="0 0 48 132" width="96" height="264">
      <rect x="1.25" y="1.25" width="45.5" height="129.5" rx="6" ry="6" fill="none" stroke="#F5F3EE" stroke-width="2.5"></rect>
      <circle cx="24" cy="24" r="11" fill="#D8463A"></circle>
      <circle cx="24" cy="66" r="11" fill="#E6B73B"></circle>
      <circle cx="24" cy="108" r="11" fill="#2E9D5C"></circle>
    </svg>
  </g>
  <text class="wm" x="224" y="367" font-size="200" fill="#F5F3EE">RYGO</text>

  <text class="meta" x="80" y="540" font-size="18" fill="rgba(245,243,238,0.55)">CLICKS</text>
  <text class="stat" x="80" y="595" font-size="64" fill="#F5F3EE">7</text>
  <text class="opt" x="170" y="595" font-size="24" fill="#2E9D5C">OPTIMAL</text>

  <text class="meta" x="380" y="540" font-size="18" fill="rgba(245,243,238,0.55)">TIME</text>
  <text class="stat" x="380" y="595" font-size="64" fill="#F5F3EE">12.8s</text>

  <text class="meta" text-anchor="end" x="1120" y="595" font-size="22" fill="rgba(245,243,238,0.55)">playRYGO.com</text>
</svg>