<svg xmlns="http://www.w3.org/2000/svg" viewBox="0 0 748 424" width="748" height="424"><rect width="748" height="424" fill="#14110E"></rect><g transform="translate(80, 80)"><svg viewBox="0 0 48 132" width="96" height="264"><rect x="1.25" y="1.25" width="45.5" height="129.5" rx="6" ry="6" fill="none" stroke="#F5F3EE" stroke-width="2.5"></rect><circle cx="24" cy="24" r="11" fill="#D8463A"></circle><circle cx="24" cy="66" r="11" fill="#E6B73B"></circle><circle cx="24" cy="108" r="11" fill="#2E9D5C"></circle></svg></g><path d="M239.200 274L216 274L216 128L262 128Q276.200 128 286.700 133.300Q297.200 138.600 303 148.300Q308.800 158 308.800 171L308.800 171Q308.800 185.600 301.400 196.500Q294 207.400 281.400 211.800L281.400 211.800L310.800 274L284.600 274L258.400 215L239.200 215L239.200 274ZM239.200 148.600L239.200 194.400L262 194.400Q272.600 194.400 278.900 188.300Q285.200 182.200 285.200 171.600L285.200 171.600Q285.200 161 278.900 154.800Q272.600 148.600 262 148.600L262 148.600L239.200 148.600Z M387.600 274L364.400 274L364.400 220.600L321.200 128L345.400 128L369.800 181Q372.400 186.600 374.100 191.800Q375.800 197 376.400 200L376.400 200Q377 197 378.700 191.800Q380.400 186.600 382.800 181L382.800 181L406.600 128L430.800 128L387.600 220.600L387.600 274Z M492.800 276L492.800 276Q479 276 468.700 270.800Q458.400 265.600 452.800 255.900Q447.200 246.200 447.200 233.200L447.200 233.200L447.200 168.800Q447.200 155.600 452.800 146Q458.400 136.400 468.700 131.200Q479 126 492.800 126L492.800 126Q506.800 126 516.900 131.300Q527 136.600 532.600 146.100Q538.200 155.600 538.200 168.800L538.200 168.800L515 168.800Q515 158 509.200 152.300Q503.400 146.600 492.800 146.600L492.800 146.600Q482.200 146.600 476.300 152.300Q470.400 158 470.400 168.800L470.400 168.800L470.400 233.200Q470.400 243.800 476.300 249.700Q482.200 255.600 492.800 255.600L492.800 255.600Q503.400 255.600 509.200 249.700Q515 243.800 515 233L515 233L515 217.600L488.800 217.600L488.800 197.200L538.200 197.200L538.200 233.200Q538.200 246.200 532.600 255.800Q527 265.400 516.900 270.700Q506.800 276 492.800 276Z M608 276L608 276Q594.200 276 584.100 270.800Q574 265.600 568.600 255.900Q563.200 246.200 563.200 233.200L563.200 233.200L563.200 168.800Q563.200 155.600 568.600 146Q574 136.400 584.100 131.200Q594.200 126 608 126L608 126Q622 126 632 131.200Q642 136.400 647.400 146Q652.800 155.600 652.800 168.800L652.800 168.800L652.800 233.200Q652.800 246.200 647.400 255.900Q642 265.600 632 270.800Q622 276 608 276ZM608 255.400L608 255.400Q618.600 255.400 624.100 249.600Q629.600 243.800 629.600 233.200L629.600 233.200L629.600 168.800Q629.600 158 624.100 152.300Q618.600 146.600 608 146.600L608 146.600Q597.400 146.600 591.900 152.300Q586.400 158 586.400 168.800L586.400 168.800L586.400 233.200Q586.400 243.800 592 249.600Q597.600 255.400 608 255.400Z" fill="#F5F3EE"></path></svg>