<svg xmlns="http://www.w3.org/2000/svg" viewBox="0 0 488 210" width="488" height="210"><path d="M49.200 164L26 164L26 18L72 18Q86.200 18 96.700 23.300Q107.200 28.600 113 38.300Q118.800 48 118.800 61L118.800 61Q118.800 75.600 111.400 86.500Q104 97.400 91.400 101.800L91.400 101.800L120.800 164L94.600 164L68.400 105L49.200 105L49.200 164ZM49.200 38.600L49.200 84.400L72 84.400Q82.600 84.400 88.900 78.300Q95.200 72.200 95.200 61.600L95.200 61.600Q95.200 51 88.900 44.800Q82.600 38.600 72 38.600L72 38.600L49.200 38.600Z M197.600 164L174.400 164L174.400 110.600L131.200 18L155.400 18L179.800 71Q182.400 76.600 184.100 81.800Q185.800 87 186.400 90L186.400 90Q187 87 188.700 81.800Q190.400 76.600 192.800 71L192.800 71L216.600 18L240.800 18L197.600 110.600L197.600 164Z M302.800 166L302.800 166Q289 166 278.700 160.800Q268.400 155.600 262.800 145.900Q257.200 136.200 257.200 123.200L257.200 123.200L257.200 58.800Q257.200 45.600 262.800 36Q268.400 26.400 278.700 21.200Q289 16 302.800 16L302.800 16Q316.800 16 326.900 21.300Q337 26.600 342.600 36.100Q348.200 45.600 348.200 58.800L348.200 58.800L325 58.800Q325 48 319.200 42.300Q313.400 36.600 302.800 36.600L302.800 36.600Q292.200 36.600 286.300 42.300Q280.400 48 280.400 58.800L280.400 58.800L280.400 123.200Q280.400 133.800 286.300 139.700Q292.200 145.600 302.800 145.600L302.800 145.600Q313.400 145.600 319.200 139.700Q325 133.800 325 123L325 123L325 107.600L298.800 107.600L298.800 87.200L348.200 87.200L348.200 123.200Q348.200 136.200 342.600 145.800Q337 155.400 326.900 160.700Q316.800 166 302.800 166Z M418 166L418 166Q404.200 166 394.100 160.800Q384 155.600 378.600 145.900Q373.200 136.200 373.200 123.200L373.200 123.200L373.200 58.800Q373.200 45.600 378.600 36Q384 26.400 394.100 21.200Q404.200 16 418 16L418 16Q432 16 442 21.200Q452 26.400 457.400 36Q462.800 45.600 462.800 58.800L462.800 58.800L462.800 123.200Q462.800 136.200 457.400 145.900Q452 155.600 442 160.800Q432 166 418 166ZM418 145.400L418 145.400Q428.600 145.400 434.100 139.600Q439.600 133.800 439.600 123.200L439.600 123.200L439.600 58.800Q439.600 48 434.100 42.300Q428.600 36.600 418 36.600L418 36.600Q407.400 36.600 401.900 42.300Q396.400 48 396.400 58.800L396.400 58.800L396.400 123.200Q396.400 133.800 402 139.600Q407.600 145.400 418 145.400Z" fill="#F5F3EE"></path></svg>