<svg xmlns="http://www.w3.org/2000/svg" viewBox="0 0 1200 630" width="1200" height="630"><rect width="1200" height="630" fill="#14110E"></rect><line x1="100" y1="0" x2="100" y2="630" stroke="rgba(245,243,238,0.08)" stroke-width="1"></line><line x1="200" y1="0" x2="200" y2="630" stroke="rgba(245,243,238,0.08)" stroke-width="1"></line><line x1="300" y1="0" x2="300" y2="630" stroke="rgba(245,243,238,0.08)" stroke-width="1"></line><line x1="400" y1="0" x2="400" y2="630" stroke="rgba(245,243,238,0.08)" stroke-width="1"></line><line x1="500" y1="0" x2="500" y2="630" stroke="rgba(245,243,238,0.08)" stroke-width="1"></line><line x1="600" y1="0" x2="600" y2="630" stroke="rgba(245,243,238,0.08)" stroke-width="1"></line><line x1="700" y1="0" x2="700" y2="630" stroke="rgba(245,243,238,0.08)" stroke-width="1"></line><line x1="800" y1="0" x2="800" y2="630" stroke="rgba(245,243,238,0.08)" stroke-width="1"></line><line x1="900" y1="0" x2="900" y2="630" stroke="rgba(245,243,238,0.08)" stroke-width="1"></line><line x1="1000" y1="0" x2="1000" y2="630" stroke="rgba(245,243,238,0.08)" stroke-width="1"></line><line x1="1100" y1="0" x2="1100" y2="630" stroke="rgba(245,243,238,0.08)" stroke-width="1"></line><line x1="0" y1="100" x2="1200" y2="100" stroke="rgba(245,243,238,0.08)" stroke-width="1"></line><line x1="0" y1="200" x2="1200" y2="200" stroke="rgba(245,243,238,0.08)" stroke-width="1"></line><line x1="0" y1="300" x2="1200" y2="300" stroke="rgba(245,243,238,0.08)" stroke-width="1"></line><line x1="0" y1="400" x2="1200" y2="400" stroke="rgba(245,243,238,0.08)" stroke-width="1"></line><line x1="0" y1="500" x2="1200" y2="500" stroke="rgba(245,243,238,0.08)" stroke-width="1"></line><line x1="0" y1="600" x2="1200" y2="600" stroke="rgba(245,243,238,0.08)" stroke-width="1"></line><path d="M84.224 100L81.848 100L81.848 83.940L86.886 83.940Q88.404 83.940 89.526 84.523Q90.648 85.106 91.275 86.162Q91.902 87.218 91.902 88.648L91.902 88.648Q91.902 90.254 91.077 91.431Q90.252 92.608 88.844 93.092L88.844 93.092L92.122 100L89.416 100L86.490 93.400L84.224 93.400L84.224 100ZM84.224 86.052L84.224 91.310L86.886 91.310Q88.074 91.310 88.778 90.595Q89.482 89.880 89.482 88.692L89.482 88.692Q89.482 87.460 88.778 86.756Q88.074 86.052 86.886 86.052L86.886 86.052L84.224 86.052Z M104.948 100L102.572 100L102.572 94.082L97.798 83.940L100.262 83.940L103.100 90.012Q103.386 90.606 103.562 91.123Q103.738 91.640 103.804 91.926L103.804 91.926Q103.848 91.640 104.035 91.123Q104.222 90.606 104.486 90.012L104.486 90.012L107.258 83.940L109.722 83.940L104.948 94.082L104.948 100Z M121.008 100.220L121.008 100.220Q119.512 100.220 118.401 99.659Q117.290 99.098 116.685 98.031Q116.080 96.964 116.080 95.534L116.080 95.534L116.080 88.406Q116.080 86.954 116.685 85.898Q117.290 84.842 118.401 84.281Q119.512 83.720 121.008 83.720L121.008 83.720Q122.504 83.720 123.604 84.292Q124.704 84.864 125.309 85.909Q125.914 86.954 125.914 88.406L125.914 88.406L123.538 88.406Q123.538 87.152 122.878 86.492Q122.218 85.832 121.008 85.832L121.008 85.832Q119.798 85.832 119.127 86.492Q118.456 87.152 118.456 88.384L118.456 88.384L118.456 95.534Q118.456 96.766 119.127 97.448Q119.798 98.130 121.008 98.130L121.008 98.130Q122.218 98.130 122.878 97.448Q123.538 96.766 123.538 95.534L123.538 95.534L123.538 93.730L120.546 93.730L120.546 91.640L125.914 91.640L125.914 95.534Q125.914 96.964 125.309 98.020Q124.704 99.076 123.604 99.648Q122.504 100.220 121.008 100.220Z M138.080 100.220L138.080 100.220Q136.584 100.220 135.495 99.659Q134.406 99.098 133.823 98.031Q133.240 96.964 133.240 95.534L133.240 95.534L133.240 88.406Q133.240 86.954 133.823 85.898Q134.406 84.842 135.495 84.281Q136.584 83.720 138.080 83.720L138.080 83.720Q139.576 83.720 140.665 84.281Q141.754 84.842 142.337 85.898Q142.920 86.954 142.920 88.384L142.920 88.384L142.920 95.534Q142.920 96.964 142.337 98.031Q141.754 99.098 140.665 99.659Q139.576 100.220 138.080 100.220ZM138.080 98.108L138.080 98.108Q139.290 98.108 139.917 97.437Q140.544 96.766 140.544 95.534L140.544 95.534L140.544 88.406Q140.544 87.152 139.917 86.492Q139.290 85.832 138.080 85.832L138.080 85.832Q136.892 85.832 136.254 86.492Q135.616 87.152 135.616 88.406L135.616 88.406L135.616 95.534Q135.616 96.766 136.254 97.437Q136.892 98.108 138.080 98.108Z  M172.114 100L167.626 100L167.626 83.940L172.114 83.940Q173.698 83.940 174.864 84.545Q176.030 85.150 176.679 86.250Q177.328 87.350 177.328 88.846L177.328 88.846L177.328 95.072Q177.328 96.546 176.679 97.668Q176.030 98.790 174.864 99.395Q173.698 100 172.114 100L172.114 100ZM170.002 86.096L170.002 97.844L172.114 97.844Q173.434 97.844 174.193 97.107Q174.952 96.370 174.952 95.072L174.952 95.072L174.952 88.846Q174.952 87.570 174.193 86.833Q173.434 86.096 172.114 86.096L172.114 86.096L170.002 86.096Z M186.326 100L183.906 100L187.998 83.940L191.122 83.940L195.214 100L192.816 100L191.848 95.930L187.294 95.930L186.326 100ZM188.834 89.308L187.734 93.972L191.386 93.972L190.286 89.330Q190.000 88.098 189.813 87.185Q189.626 86.272 189.560 85.942L189.560 85.942Q189.494 86.272 189.318 87.185Q189.142 88.098 188.834 89.308L188.834 89.308Z M211.164 100L202.276 100L202.276 97.888L205.510 97.888L205.510 86.052L202.276 86.052L202.276 83.940L211.164 83.940L211.164 86.052L207.930 86.052L207.930 97.888L211.164 97.888L211.164 100Z M229.072 100L219.678 100L219.678 83.940L222.054 83.940L222.054 97.822L229.072 97.822L229.072 100Z M242.228 100L239.852 100L239.852 94.082L235.078 83.940L237.542 83.940L240.380 90.012Q240.666 90.606 240.842 91.123Q241.018 91.640 241.084 91.926L241.084 91.926Q241.128 91.640 241.315 91.123Q241.502 90.606 241.766 90.012L241.766 90.012L244.538 83.940L247.002 83.940L242.228 94.082L242.228 100Z  M275.360 94.324L275.360 94.324Q274.480 94.324 273.952 93.807Q273.424 93.290 273.424 92.410L273.424 92.410Q273.424 91.508 273.952 90.969Q274.480 90.430 275.360 90.430L275.360 90.430Q276.262 90.430 276.779 90.969Q277.296 91.508 277.296 92.410L277.296 92.410Q277.296 93.290 276.779 93.807Q276.262 94.324 275.360 94.324Z  M306.600 100L304.818 100L305.588 95.798L303.762 95.798L303.762 94.148L305.874 94.148L306.644 89.792L304.488 89.792L304.488 88.142L306.952 88.142L307.700 83.940L309.482 83.940L308.712 88.142L312.012 88.142L312.760 83.940L314.542 83.940L313.772 88.142L315.598 88.142L315.598 89.792L313.486 89.792L312.716 94.148L314.872 94.148L314.872 95.798L312.408 95.798L311.660 100L309.878 100L310.648 95.798L307.348 95.798L306.600 100ZM308.426 89.792L307.656 94.148L310.934 94.148L311.704 89.792L308.426 89.792Z M326.840 100.220L326.840 100.220Q325.322 100.220 324.211 99.626Q323.100 99.032 322.484 97.965Q321.868 96.898 321.868 95.468L321.868 95.468L321.868 88.472Q321.868 87.020 322.473 85.964Q323.078 84.908 324.200 84.314Q325.322 83.720 326.840 83.720L326.840 83.720Q328.380 83.720 329.491 84.314Q330.602 84.908 331.207 85.964Q331.812 87.020 331.812 88.472L331.812 88.472L331.812 95.468Q331.812 96.898 331.196 97.965Q330.580 99.032 329.469 99.626Q328.358 100.220 326.840 100.220ZM326.840 98.174L326.840 98.174Q328.072 98.174 328.809 97.426Q329.546 96.678 329.546 95.468L329.546 95.468L329.546 88.472Q329.546 87.262 328.809 86.514Q328.072 85.766 326.840 85.766L326.840 85.766Q325.608 85.766 324.871 86.514Q324.134 87.262 324.134 88.472L324.134 88.472L324.134 95.468Q324.134 96.678 324.871 97.426Q325.608 98.174 326.840 98.174ZM326.840 93.334L326.840 93.334Q326.224 93.334 325.839 92.938Q325.454 92.542 325.454 91.904L325.454 91.904Q325.454 91.288 325.839 90.903Q326.224 90.518 326.840 90.518L326.840 90.518Q327.456 90.518 327.841 90.903Q328.226 91.288 328.226 91.904L328.226 91.904Q328.226 92.542 327.841 92.938Q327.456 93.334 326.840 93.334Z M348.554 100L346.200 100L346.200 96.656L339.006 96.656L339.006 93.092L345.254 83.940L347.894 83.940L341.294 93.664L341.294 94.522L346.200 94.522L346.200 90.760L348.554 90.760L348.554 100Z M366.242 100L356.430 100L356.430 97.646L361.402 92.520Q362.546 91.332 363.085 90.375Q363.624 89.418 363.624 88.472L363.624 88.472Q363.624 87.240 362.953 86.536Q362.282 85.832 361.116 85.832L361.116 85.832Q359.840 85.832 359.103 86.569Q358.366 87.306 358.366 88.582L358.366 88.582L355.990 88.582Q356.034 87.086 356.672 85.997Q357.310 84.908 358.454 84.314Q359.598 83.720 361.138 83.720L361.138 83.720Q362.612 83.720 363.712 84.292Q364.812 84.864 365.406 85.898Q366.000 86.932 366.000 88.340L366.000 88.340Q366.000 89.770 365.263 91.134Q364.526 92.498 362.854 94.170L362.854 94.170L359.224 97.844L366.242 97.844L366.242 100Z" fill="rgba(245,243,238,0.55)"></path><g transform="translate(900.88, 100)"><path d="M3.696 0L1.452 0L1.452-16.060L4.378-16.060L5.984-10.912Q6.226-10.186 6.402-9.515Q6.578-8.844 6.644-8.514L6.644-8.514Q6.732-8.844 6.897-9.515Q7.062-10.186 7.282-10.912L7.282-10.912L8.822-16.060L11.748-16.060L11.748 0L9.504 0L9.504-5.412Q9.504-6.446 9.559-7.711Q9.614-8.976 9.724-10.263Q9.834-11.550 9.944-12.727Q10.054-13.904 10.142-14.784L10.142-14.784L7.766-6.974L5.478-6.974L3.058-14.784Q3.168-13.926 3.278-12.793Q3.388-11.660 3.476-10.384Q3.564-9.108 3.630-7.821Q3.696-6.534 3.696-5.412L3.696-5.412L3.696 0Z M20.526 0L18.106 0L22.198-16.060L25.322-16.060L29.414 0L27.016 0L26.048-4.070L21.494-4.070L20.526 0ZM23.034-10.692L21.934-6.028L25.586-6.028L24.486-10.670Q24.200-11.902 24.013-12.815Q23.826-13.728 23.760-14.058L23.760-14.058Q23.694-13.728 23.518-12.815Q23.342-11.902 23.034-10.692L23.034-10.692Z M42.108 0L39.732 0L39.732-5.918L34.958-16.060L37.422-16.060L40.260-9.988Q40.546-9.394 40.722-8.877Q40.898-8.360 40.964-8.074L40.964-8.074Q41.008-8.360 41.195-8.877Q41.382-9.394 41.646-9.988L41.646-9.988L44.418-16.060L46.882-16.060L42.108-5.918L42.108 0Z  M75.240 0.220L75.240 0.220Q73.722 0.220 72.611-0.374Q71.500-0.968 70.884-2.035Q70.268-3.102 70.268-4.532L70.268-4.532L70.268-11.528Q70.268-12.980 70.873-14.036Q71.478-15.092 72.600-15.686Q73.722-16.280 75.240-16.280L75.240-16.280Q76.780-16.280 77.891-15.686Q79.002-15.092 79.607-14.036Q80.212-12.980 80.212-11.528L80.212-11.528L80.212-4.532Q80.212-3.102 79.596-2.035Q78.980-0.968 77.869-0.374Q76.758 0.220 75.240 0.220ZM75.240-1.826L75.240-1.826Q76.472-1.826 77.209-2.574Q77.946-3.322 77.946-4.532L77.946-4.532L77.946-11.528Q77.946-12.738 77.209-13.486Q76.472-14.234 75.240-14.234L75.240-14.234Q74.008-14.234 73.271-13.486Q72.534-12.738 72.534-11.528L72.534-11.528L72.534-4.532Q72.534-3.322 73.271-2.574Q74.008-1.826 75.240-1.826ZM75.240-6.666L75.240-6.666Q74.624-6.666 74.239-7.062Q73.854-7.458 73.854-8.096L73.854-8.096Q73.854-8.712 74.239-9.097Q74.624-9.482 75.240-9.482L75.240-9.482Q75.856-9.482 76.241-9.097Q76.626-8.712 76.626-8.096L76.626-8.096Q76.626-7.458 76.241-7.062Q75.856-6.666 75.240-6.666Z M97.482 0L87.670 0L87.670-2.354L92.642-7.480Q93.786-8.668 94.325-9.625Q94.864-10.582 94.864-11.528L94.864-11.528Q94.864-12.760 94.193-13.464Q93.522-14.168 92.356-14.168L92.356-14.168Q91.080-14.168 90.343-13.431Q89.606-12.694 89.606-11.418L89.606-11.418L87.230-11.418Q87.274-12.914 87.912-14.003Q88.550-15.092 89.694-15.686Q90.838-16.280 92.378-16.280L92.378-16.280Q93.852-16.280 94.952-15.708Q96.052-15.136 96.646-14.102Q97.240-13.068 97.240-11.660L97.240-11.660Q97.240-10.230 96.503-8.866Q95.766-7.502 94.094-5.830L94.094-5.830L90.464-2.156L97.482-2.156L97.482 0Z  M126.720-5.676L126.720-5.676Q125.840-5.676 125.312-6.193Q124.784-6.710 124.784-7.590L124.784-7.590Q124.784-8.492 125.312-9.031Q125.840-9.570 126.720-9.570L126.720-9.570Q127.622-9.570 128.139-9.031Q128.656-8.492 128.656-7.590L128.656-7.590Q128.656-6.710 128.139-6.193Q127.622-5.676 126.720-5.676Z  M166.122 0L156.310 0L156.310-2.354L161.282-7.480Q162.426-8.668 162.965-9.625Q163.504-10.582 163.504-11.528L163.504-11.528Q163.504-12.760 162.833-13.464Q162.162-14.168 160.996-14.168L160.996-14.168Q159.720-14.168 158.983-13.431Q158.246-12.694 158.246-11.418L158.246-11.418L155.870-11.418Q155.914-12.914 156.552-14.003Q157.190-15.092 158.334-15.686Q159.478-16.280 161.018-16.280L161.018-16.280Q162.492-16.280 163.592-15.708Q164.692-15.136 165.286-14.102Q165.880-13.068 165.880-11.660L165.880-11.660Q165.880-10.230 165.143-8.866Q164.406-7.502 162.734-5.830L162.734-5.830L159.104-2.156L166.122-2.156L166.122 0Z M178.200 0.220L178.200 0.220Q176.682 0.220 175.571-0.374Q174.460-0.968 173.844-2.035Q173.228-3.102 173.228-4.532L173.228-4.532L173.228-11.528Q173.228-12.980 173.833-14.036Q174.438-15.092 175.560-15.686Q176.682-16.280 178.200-16.280L178.200-16.280Q179.740-16.280 180.851-15.686Q181.962-15.092 182.567-14.036Q183.172-12.980 183.172-11.528L183.172-11.528L183.172-4.532Q183.172-3.102 182.556-2.035Q181.940-0.968 180.829-0.374Q179.718 0.220 178.200 0.220ZM178.200-1.826L178.200-1.826Q179.432-1.826 180.169-2.574Q180.906-3.322 180.906-4.532L180.906-4.532L180.906-11.528Q180.906-12.738 180.169-13.486Q179.432-14.234 178.200-14.234L178.200-14.234Q176.968-14.234 176.231-13.486Q175.494-12.738 175.494-11.528L175.494-11.528L175.494-4.532Q175.494-3.322 176.231-2.574Q176.968-1.826 178.200-1.826ZM178.200-6.666L178.200-6.666Q177.584-6.666 177.199-7.062Q176.814-7.458 176.814-8.096L176.814-8.096Q176.814-8.712 177.199-9.097Q177.584-9.482 178.200-9.482L178.200-9.482Q178.816-9.482 179.201-9.097Q179.586-8.712 179.586-8.096L179.586-8.096Q179.586-7.458 179.201-7.062Q178.816-6.666 178.200-6.666Z M200.442 0L190.630 0L190.630-2.354L195.602-7.480Q196.746-8.668 197.285-9.625Q197.824-10.582 197.824-11.528L197.824-11.528Q197.824-12.760 197.153-13.464Q196.482-14.168 195.316-14.168L195.316-14.168Q194.040-14.168 193.303-13.431Q192.566-12.694 192.566-11.418L192.566-11.418L190.190-11.418Q190.234-12.914 190.872-14.003Q191.510-15.092 192.654-15.686Q193.798-16.280 195.338-16.280L195.338-16.280Q196.812-16.280 197.912-15.708Q199.012-15.136 199.606-14.102Q200.200-13.068 200.200-11.660L200.200-11.660Q200.200-10.230 199.463-8.866Q198.726-7.502 197.054-5.830L197.054-5.830L193.424-2.156L200.442-2.156L200.442 0Z M212.542 0.220L212.542 0.220Q210.958 0.220 209.770-0.440Q208.582-1.100 207.922-2.299Q207.262-3.498 207.262-5.060L207.262-5.060Q207.262-6.248 207.625-7.447Q207.988-8.646 208.670-9.746L208.670-9.746L212.586-16.060L215.226-16.060L210.562-8.668L210.672-8.602Q211.112-9.240 211.849-9.581Q212.586-9.922 213.488-9.922L213.488-9.922Q214.786-9.922 215.754-9.306Q216.722-8.690 217.250-7.579Q217.778-6.468 217.778-4.950L217.778-4.950Q217.778-3.410 217.118-2.244Q216.458-1.078 215.292-0.429Q214.126 0.220 212.542 0.220ZM212.520-1.826L212.520-1.826Q213.840-1.826 214.632-2.684Q215.424-3.542 215.424-4.950L215.424-4.950Q215.424-6.358 214.632-7.216Q213.840-8.074 212.520-8.074L212.520-8.074Q211.200-8.074 210.408-7.216Q209.616-6.358 209.616-4.950L209.616-4.950Q209.616-3.542 210.408-2.684Q211.200-1.826 212.520-1.826Z" fill="rgba(245,243,238,0.55)"></path></g><g transform="translate(80, 173)"><svg viewBox="0 0 48 132" width="96" height="264"><rect x="1.25" y="1.25" width="45.5" height="129.5" rx="6" ry="6" fill="none" stroke="#F5F3EE" stroke-width="2.5"></rect><circle cx="24" cy="24" r="11" fill="#D8463A"></circle><circle cx="24" cy="66" r="11" fill="#E6B73B"></circle><circle cx="24" cy="108" r="11" fill="#2E9D5C"></circle></svg></g><path d="M263.200 367L240 367L240 221L286 221Q300.200 221 310.700 226.300Q321.200 231.600 327 241.300Q332.800 251 332.800 264L332.800 264Q332.800 278.600 325.400 289.500Q318 300.400 305.400 304.800L305.400 304.800L334.800 367L308.600 367L282.400 308L263.200 308L263.200 367ZM263.200 241.600L263.200 287.400L286 287.400Q296.600 287.400 302.900 281.300Q309.200 275.200 309.200 264.600L309.200 264.600Q309.200 254 302.900 247.800Q296.600 241.600 286 241.600L286 241.600L263.200 241.600Z M411.600 367L388.400 367L388.400 313.600L345.200 221L369.400 221L393.800 274Q396.400 279.600 398.100 284.800Q399.800 290 400.400 293L400.400 293Q401 290 402.700 284.800Q404.400 279.600 406.800 274L406.800 274L430.600 221L454.800 221L411.600 313.600L411.600 367Z M516.800 369L516.800 369Q503 369 492.700 363.800Q482.400 358.600 476.800 348.900Q471.200 339.200 471.200 326.200L471.200 326.200L471.200 261.800Q471.200 248.600 476.800 239Q482.400 229.400 492.700 224.200Q503 219 516.800 219L516.800 219Q530.800 219 540.900 224.300Q551 229.600 556.600 239.100Q562.200 248.600 562.200 261.800L562.200 261.800L539 261.800Q539 251 533.200 245.300Q527.400 239.600 516.800 239.600L516.800 239.600Q506.200 239.600 500.300 245.300Q494.400 251 494.400 261.800L494.400 261.800L494.400 326.200Q494.400 336.800 500.300 342.700Q506.200 348.600 516.800 348.600L516.800 348.600Q527.400 348.600 533.200 342.700Q539 336.800 539 326L539 326L539 310.600L512.800 310.600L512.800 290.200L562.200 290.200L562.200 326.200Q562.200 339.200 556.600 348.800Q551 358.400 540.900 363.700Q530.800 369 516.800 369Z M632 369L632 369Q618.200 369 608.100 363.800Q598 358.600 592.600 348.900Q587.200 339.200 587.200 326.200L587.200 326.200L587.200 261.800Q587.200 248.600 592.600 239Q598 229.400 608.100 224.200Q618.200 219 632 219L632 219Q646 219 656 224.200Q666 229.400 671.400 239Q676.800 248.600 676.800 261.800L676.800 261.800L676.800 326.200Q676.800 339.200 671.400 348.900Q666 358.600 656 363.800Q646 369 632 369ZM632 348.400L632 348.400Q642.600 348.400 648.100 342.600Q653.600 336.800 653.600 326.200L653.600 326.200L653.600 261.800Q653.600 251 648.100 245.300Q642.600 239.600 632 239.600L632 239.600Q621.400 239.600 615.900 245.300Q610.400 251 610.400 261.800L610.400 261.800L610.400 326.200Q610.400 336.800 616 342.600Q621.600 348.400 632 348.400Z" fill="#F5F3EE"></path><path d="M85.472 540.180L85.472 540.180Q84.248 540.180 83.339 539.721Q82.430 539.262 81.935 538.389Q81.440 537.516 81.440 536.346L81.440 536.346L81.440 530.514Q81.440 529.326 81.935 528.462Q82.430 527.598 83.339 527.139Q84.248 526.680 85.472 526.680L85.472 526.680Q86.696 526.680 87.596 527.148Q88.496 527.616 88.991 528.471Q89.486 529.326 89.486 530.514L89.486 530.514L87.542 530.514Q87.542 529.488 87.002 528.948Q86.462 528.408 85.472 528.408L85.472 528.408Q84.482 528.408 83.933 528.948Q83.384 529.488 83.384 530.496L83.384 530.496L83.384 536.346Q83.384 537.354 83.933 537.903Q84.482 538.452 85.472 538.452L85.472 538.452Q86.462 538.452 87.002 537.903Q87.542 537.354 87.542 536.346L87.542 536.346L89.486 536.346Q89.486 537.516 88.991 538.380Q88.496 539.244 87.596 539.712Q86.696 540.180 85.472 540.180Z M104.048 540L96.362 540L96.362 526.860L98.306 526.860L98.306 538.218L104.048 538.218L104.048 540Z M117.836 540L110.564 540L110.564 538.272L113.210 538.272L113.210 528.588L110.564 528.588L110.564 526.860L117.836 526.860L117.836 528.588L115.190 528.588L115.190 538.272L117.836 538.272L117.836 540Z M128.672 540.180L128.672 540.180Q127.448 540.180 126.539 539.721Q125.630 539.262 125.135 538.389Q124.640 537.516 124.640 536.346L124.640 536.346L124.640 530.514Q124.640 529.326 125.135 528.462Q125.630 527.598 126.539 527.139Q127.448 526.680 128.672 526.680L128.672 526.680Q129.896 526.680 130.796 527.148Q131.696 527.616 132.191 528.471Q132.686 529.326 132.686 530.514L132.686 530.514L130.742 530.514Q130.742 529.488 130.202 528.948Q129.662 528.408 128.672 528.408L128.672 528.408Q127.682 528.408 127.133 528.948Q126.584 529.488 126.584 530.496L126.584 530.496L126.584 536.346Q126.584 537.354 127.133 537.903Q127.682 538.452 128.672 538.452L128.672 538.452Q129.662 538.452 130.202 537.903Q130.742 537.354 130.742 536.346L130.742 536.346L132.686 536.346Q132.686 537.516 132.191 538.380Q131.696 539.244 130.796 539.712Q129.896 540.180 128.672 540.180Z M141.056 540L139.112 540L139.112 526.860L141.056 526.860L141.056 532.332L142.802 532.332L145.484 526.860L147.608 526.860L144.512 533.160L147.752 540L145.574 540L142.766 534.078L141.056 534.078L141.056 540Z M157.454 540.180L157.454 540.180Q156.122 540.180 155.168 539.739Q154.214 539.298 153.692 538.479Q153.170 537.660 153.170 536.526L153.170 536.526L155.096 536.526Q155.096 537.426 155.726 537.939Q156.356 538.452 157.472 538.452L157.472 538.452Q158.516 538.452 159.110 537.948Q159.704 537.444 159.704 536.562L159.704 536.562Q159.704 535.824 159.299 535.284Q158.894 534.744 158.138 534.546L158.138 534.546L156.482 534.060Q155.042 533.646 154.259 532.647Q153.476 531.648 153.476 530.262L153.476 530.262Q153.476 529.182 153.962 528.372Q154.448 527.562 155.348 527.112Q156.248 526.662 157.472 526.662L157.472 526.662Q159.272 526.662 160.361 527.634Q161.450 528.606 161.468 530.244L161.468 530.244L159.524 530.244Q159.524 529.380 158.975 528.885Q158.426 528.390 157.436 528.390L157.436 528.390Q156.482 528.390 155.942 528.849Q155.402 529.308 155.402 530.136L155.402 530.136Q155.402 530.874 155.807 531.414Q156.212 531.954 156.968 532.170L156.968 532.170L158.642 532.674Q160.082 533.070 160.856 534.078Q161.630 535.086 161.630 536.490L161.630 536.490Q161.630 537.588 161.108 538.425Q160.586 539.262 159.650 539.721Q158.714 540.180 157.454 540.180Z" fill="rgba(245,243,238,0.55)"></path><path d="M98.496 595L89.920 595L106.816 555.704L91.840 555.704L91.840 562.488L83.840 562.488L83.840 548.280L114.816 548.280L114.816 555.832L98.496 595Z" fill="#F5F3EE"></path><path d="M177.200 595.240L177.200 595.240Q175.568 595.240 174.380 594.628Q173.192 594.016 172.556 592.852Q171.920 591.688 171.920 590.128L171.920 590.128L171.920 582.352Q171.920 580.768 172.556 579.616Q173.192 578.464 174.380 577.852Q175.568 577.240 177.200 577.240L177.200 577.240Q178.832 577.240 180.020 577.852Q181.208 578.464 181.844 579.616Q182.480 580.768 182.480 582.328L182.480 582.328L182.480 590.128Q182.480 591.688 181.844 592.852Q181.208 594.016 180.020 594.628Q178.832 595.240 177.200 595.240ZM177.200 592.936L177.200 592.936Q178.520 592.936 179.204 592.204Q179.888 591.472 179.888 590.128L179.888 590.128L179.888 582.352Q179.888 580.984 179.204 580.264Q178.520 579.544 177.200 579.544L177.200 579.544Q175.904 579.544 175.208 580.264Q174.512 580.984 174.512 582.352L174.512 582.352L174.512 590.128Q174.512 591.472 175.208 592.204Q175.904 592.936 177.200 592.936Z M192.608 595L190.016 595L190.016 577.480L195.752 577.480Q197.456 577.480 198.716 578.128Q199.976 578.776 200.660 579.964Q201.344 581.152 201.344 582.760L201.344 582.760Q201.344 584.344 200.648 585.544Q199.952 586.744 198.704 587.392Q197.456 588.040 195.752 588.040L195.752 588.040L192.608 588.040L192.608 595ZM192.608 579.808L192.608 585.712L195.752 585.712Q197.096 585.712 197.900 584.908Q198.704 584.104 198.704 582.760L198.704 582.760Q198.704 581.392 197.900 580.600Q197.096 579.808 195.752 579.808L195.752 579.808L192.608 579.808Z M214.496 595L211.904 595L211.904 579.856L207.224 579.856L207.224 577.456L219.176 577.456L219.176 579.856L214.496 579.856L214.496 595Z M236.048 595L226.352 595L226.352 592.696L229.880 592.696L229.880 579.784L226.352 579.784L226.352 577.480L236.048 577.480L236.048 579.784L232.520 579.784L232.520 592.696L236.048 592.696L236.048 595Z M246.032 595L243.584 595L243.584 577.480L246.776 577.480L248.528 583.096Q248.792 583.888 248.984 584.620Q249.176 585.352 249.248 585.712L249.248 585.712Q249.344 585.352 249.524 584.620Q249.704 583.888 249.944 583.096L249.944 583.096L251.624 577.480L254.816 577.480L254.816 595L252.368 595L252.368 589.096Q252.368 587.968 252.428 586.588Q252.488 585.208 252.608 583.804Q252.728 582.400 252.848 581.116Q252.968 579.832 253.064 578.872L253.064 578.872L250.472 587.392L247.976 587.392L245.336 578.872Q245.456 579.808 245.576 581.044Q245.696 582.280 245.792 583.672Q245.888 585.064 245.960 586.468Q246.032 587.872 246.032 589.096L246.032 589.096L246.032 595Z M263.672 595L261.032 595L265.496 577.480L268.904 577.480L273.368 595L270.752 595L269.696 590.560L264.728 590.560L263.672 595ZM266.408 583.336L265.208 588.424L269.192 588.424L267.992 583.360Q267.680 582.016 267.476 581.020Q267.272 580.024 267.200 579.664L267.200 579.664Q267.128 580.024 266.936 581.020Q266.744 582.016 266.408 583.336L266.408 583.336Z M290.864 595L280.616 595L280.616 577.480L283.208 577.480L283.208 592.624L290.864 592.624L290.864 595Z" fill="#2E9D5C"></path><path d="M386.372 540L384.428 540L384.428 528.642L380.918 528.642L380.918 526.842L389.882 526.842L389.882 528.642L386.372 528.642L386.372 540Z M403.436 540L396.164 540L396.164 538.272L398.810 538.272L398.810 528.588L396.164 528.588L396.164 526.860L403.436 526.860L403.436 528.588L400.790 528.588L400.790 538.272L403.436 538.272L403.436 540Z M411.824 540L409.988 540L409.988 526.860L412.382 526.860L413.696 531.072Q413.894 531.666 414.038 532.215Q414.182 532.764 414.236 533.034L414.236 533.034Q414.308 532.764 414.443 532.215Q414.578 531.666 414.758 531.072L414.758 531.072L416.018 526.860L418.412 526.860L418.412 540L416.576 540L416.576 535.572Q416.576 534.726 416.621 533.691Q416.666 532.656 416.756 531.603Q416.846 530.550 416.936 529.587Q417.026 528.624 417.098 527.904L417.098 527.904L415.154 534.294L413.282 534.294L411.302 527.904Q411.392 528.606 411.482 529.533Q411.572 530.460 411.644 531.504Q411.716 532.548 411.770 533.601Q411.824 534.654 411.824 535.572L411.824 535.572L411.824 540Z M432.614 540L424.892 540L424.892 526.860L432.614 526.860L432.614 528.588L426.800 528.588L426.800 532.314L431.984 532.314L431.984 534.024L426.800 534.024L426.800 538.272L432.614 538.272L432.614 540Z" fill="rgba(245,243,238,0.55)"></path><path d="M415.328 595L385.376 595L385.376 587.960L397.536 587.960L397.536 555.384L385.312 564.472L385.312 556.024L396.064 548.280L405.536 548.280L405.536 587.960L415.328 587.960L415.328 595Z M452.640 595L423.456 595L423.456 587.256L438.048 572.600Q441.120 569.464 442.592 566.936Q444.064 564.408 444.064 561.720L444.064 561.720Q444.064 558.456 442.272 556.632Q440.480 554.808 437.408 554.808L437.408 554.808Q434.016 554.808 432.096 556.760Q430.176 558.712 430.176 562.168L430.176 562.168L422.176 562.168Q422.240 557.688 424.128 554.456Q426.016 551.224 429.472 549.432Q432.928 547.640 437.536 547.640L437.536 547.640Q441.952 547.640 445.216 549.304Q448.480 550.968 450.272 553.976Q452.064 556.984 452.064 561.144L452.064 561.144Q452.064 565.432 449.856 569.496Q447.648 573.560 442.784 578.232L442.784 578.232L433.056 587.768L452.640 587.768L452.640 595Z M476.000 595.640L476.000 595.640Q473.248 595.640 471.616 594.040Q469.984 592.440 469.984 589.688L469.984 589.688Q469.984 586.936 471.616 585.304Q473.248 583.672 476.000 583.672L476.000 583.672Q478.752 583.672 480.384 585.304Q482.016 586.936 482.016 589.688L482.016 589.688Q482.016 592.440 480.384 594.040Q478.752 595.640 476.000 595.640Z M514.400 595.640L514.400 595.640Q509.792 595.640 506.400 594.072Q503.008 592.504 501.152 589.624Q499.296 586.744 499.296 582.904L499.296 582.904Q499.296 578.680 501.664 575.672L501.664 575.672Q503.840 572.920 507.872 570.936L507.872 570.936Q504.288 569.080 502.368 566.584L502.368 566.584Q500.064 563.768 500.064 559.800L500.064 559.800Q500.064 556.216 501.792 553.464Q503.520 550.712 506.752 549.176Q509.984 547.640 514.400 547.640Q518.816 547.640 521.984 549.176Q525.152 550.712 526.912 553.464Q528.672 556.216 528.672 559.800L528.672 559.800Q528.672 563.832 526.432 566.648L526.432 566.648Q524.512 569.080 520.992 570.936L520.992 570.936Q525.280 573.048 527.264 575.736L527.264 575.736Q529.504 578.808 529.504 582.904L529.504 582.904Q529.504 588.792 525.440 592.216Q521.376 595.640 514.400 595.640ZM514.400 588.792L514.400 588.792Q517.728 588.792 519.680 587.032Q521.632 585.272 521.632 582.392L521.632 582.392Q521.632 580.152 520.288 578.136Q518.944 576.120 516.576 575.032L516.576 575.032L514.400 574.008L512.160 575.096Q509.856 576.120 508.512 578.104Q507.168 580.088 507.168 582.328L507.168 582.328Q507.168 585.208 509.120 587Q511.072 588.792 514.400 588.792ZM512.864 567.224L514.400 567.928L515.872 567.288Q518.176 566.200 519.488 564.344Q520.800 562.488 520.800 560.184L520.800 560.184Q520.800 557.560 519.072 555.992Q517.344 554.424 514.400 554.424Q511.456 554.424 509.696 556.024Q507.936 557.624 507.936 560.248L507.936 560.248Q507.936 562.488 509.280 564.344Q510.624 566.200 512.864 567.224L512.864 567.224Z M554.272 595.576L551.456 595.576Q547.424 595.576 544.416 594.296Q541.408 593.016 539.712 590.744Q538.016 588.472 537.888 585.400L537.888 585.400L545.888 585.400Q546.016 587.064 547.520 588.088Q549.024 589.112 551.456 589.112L551.456 589.112L554.272 589.112Q557.216 589.112 558.688 587.960Q560.160 586.808 560.160 584.824L560.160 584.824Q560.160 582.968 558.848 581.912Q557.536 580.856 554.784 580.536L554.784 580.536L550.432 579.896Q544.416 579.064 541.600 576.696Q538.784 574.328 538.784 569.592L538.784 569.592Q538.784 564.664 542.112 561.944Q545.440 559.224 551.904 559.224L551.904 559.224L554.336 559.224Q560.224 559.224 563.744 561.848Q567.264 564.472 567.520 568.888L567.520 568.888L559.520 568.888Q559.328 567.480 557.952 566.584Q556.576 565.688 554.336 565.688L554.336 565.688L551.904 565.688Q549.152 565.688 547.904 566.680Q546.656 567.672 546.656 569.592L546.656 569.592Q546.656 571.384 547.744 572.248Q548.832 573.112 551.264 573.496L551.264 573.496L555.808 574.136Q562.080 575.032 565.056 577.496Q568.032 579.960 568.032 584.760L568.032 584.760Q568.032 589.880 564.544 592.728Q561.056 595.576 554.272 595.576L554.272 595.576Z" fill="#F5F3EE"></path><g transform="translate(918.04, 595)"><path d="M4.224 3.960L1.848 3.960L1.848-12.100L4.202-12.100L4.202-9.790L4.246-9.790Q4.378-10.846 5.104-11.506L5.104-11.506Q5.984-12.320 7.480-12.320L7.480-12.320Q9.306-12.320 10.395-11.099Q11.484-9.878 11.484-7.766L11.484-7.766L11.484-4.356Q11.484-2.948 10.989-1.925Q10.494-0.902 9.603-0.341Q8.712 0.220 7.480 0.220L7.480 0.220Q6.006 0.220 5.104-0.616L5.104-0.616Q4.378-1.254 4.246-2.310L4.246-2.310L4.158-2.310L4.224 0.506L4.224 3.960ZM6.666-1.848L6.666-1.848Q7.832-1.848 8.481-2.519Q9.130-3.190 9.130-4.466L9.130-4.466L9.130-7.634Q9.130-8.910 8.481-9.581Q7.832-10.252 6.666-10.252L6.666-10.252Q5.544-10.252 4.884-9.559Q4.224-8.866 4.224-7.634L4.224-7.634L4.224-4.466Q4.224-3.234 4.884-2.541Q5.544-1.848 6.666-1.848Z M29.348 0L25.498 0Q24.376 0 23.540-0.451Q22.704-0.902 22.231-1.738Q21.758-2.574 21.758-3.674L21.758-3.674L21.758-13.904L17.798-13.904L17.798-16.060L24.134-16.060L24.134-3.674Q24.134-2.970 24.530-2.563Q24.926-2.156 25.608-2.156L25.608-2.156L29.348-2.156L29.348 0Z M39.710 0.220L39.710 0.220Q37.818 0.220 36.729-0.759Q35.640-1.738 35.640-3.432L35.640-3.432Q35.640-5.148 36.795-6.127Q37.950-7.106 39.974-7.106L39.974-7.106L43.340-7.106L43.340-8.228Q43.340-9.218 42.724-9.768Q42.108-10.318 40.986-10.318L40.986-10.318Q39.996-10.318 39.336-9.889Q38.676-9.460 38.566-8.756L38.566-8.756L36.234-8.756Q36.432-10.384 37.741-11.352Q39.050-12.320 41.052-12.320L41.052-12.320Q43.208-12.320 44.462-11.231Q45.716-10.142 45.716-8.272L45.716-8.272L45.716 0L43.406 0L43.406-2.222L43.384-2.222Q43.230-1.210 42.394-0.572L42.394-0.572Q41.382 0.220 39.710 0.220ZM40.414-1.606L40.414-1.606Q41.690-1.606 42.515-2.255Q43.340-2.904 43.340-3.916L43.340-3.916L43.340-5.500L40.018-5.500Q39.094-5.500 38.555-4.994Q38.016-4.488 38.016-3.608L38.016-3.608Q38.016-2.684 38.654-2.145Q39.292-1.606 40.414-1.606Z M57.772 3.960L55.264 3.960L57.002-0.704L52.492-12.100L55.110-12.100L57.640-5.280Q57.794-4.840 57.948-4.224Q58.102-3.608 58.212-3.212L58.212-3.212Q58.300-3.608 58.454-4.224Q58.608-4.840 58.762-5.280L58.762-5.280L61.138-12.100L63.668-12.100L57.772 3.960Z M72.864 0L70.488 0L70.488-16.060L75.526-16.060Q77.044-16.060 78.166-15.477Q79.288-14.894 79.915-13.838Q80.542-12.782 80.542-11.352L80.542-11.352Q80.542-9.746 79.717-8.569Q78.892-7.392 77.484-6.908L77.484-6.908L80.762 0L78.056 0L75.130-6.600L72.864-6.600L72.864 0ZM72.864-13.948L72.864-8.690L75.526-8.690Q76.714-8.690 77.418-9.405Q78.122-10.120 78.122-11.308L78.122-11.308Q78.122-12.540 77.418-13.244Q76.714-13.948 75.526-13.948L75.526-13.948L72.864-13.948Z M93.588 0L91.212 0L91.212-5.918L86.438-16.060L88.902-16.060L91.740-9.988Q92.026-9.394 92.202-8.877Q92.378-8.360 92.444-8.074L92.444-8.074Q92.488-8.360 92.675-8.877Q92.862-9.394 93.126-9.988L93.126-9.988L95.898-16.060L98.362-16.060L93.588-5.918L93.588 0Z M109.648 0.220L109.648 0.220Q108.152 0.220 107.041-0.341Q105.930-0.902 105.325-1.969Q104.720-3.036 104.720-4.466L104.720-4.466L104.720-11.594Q104.720-13.046 105.325-14.102Q105.930-15.158 107.041-15.719Q108.152-16.280 109.648-16.280L109.648-16.280Q111.144-16.280 112.244-15.708Q113.344-15.136 113.949-14.091Q114.554-13.046 114.554-11.594L114.554-11.594L112.178-11.594Q112.178-12.848 111.518-13.508Q110.858-14.168 109.648-14.168L109.648-14.168Q108.438-14.168 107.767-13.508Q107.096-12.848 107.096-11.616L107.096-11.616L107.096-4.466Q107.096-3.234 107.767-2.552Q108.438-1.870 109.648-1.870L109.648-1.870Q110.858-1.870 111.518-2.552Q112.178-3.234 112.178-4.466L112.178-4.466L112.178-6.270L109.186-6.270L109.186-8.360L114.554-8.360L114.554-4.466Q114.554-3.036 113.949-1.980Q113.344-0.924 112.244-0.352Q111.144 0.220 109.648 0.220Z M126.720 0.220L126.720 0.220Q125.224 0.220 124.135-0.341Q123.046-0.902 122.463-1.969Q121.880-3.036 121.880-4.466L121.880-4.466L121.880-11.594Q121.880-13.046 122.463-14.102Q123.046-15.158 124.135-15.719Q125.224-16.280 126.720-16.280L126.720-16.280Q128.216-16.280 129.305-15.719Q130.394-15.158 130.977-14.102Q131.560-13.046 131.560-11.616L131.560-11.616L131.560-4.466Q131.560-3.036 130.977-1.969Q130.394-0.902 129.305-0.341Q128.216 0.220 126.720 0.220ZM126.720-1.892L126.720-1.892Q127.930-1.892 128.557-2.563Q129.184-3.234 129.184-4.466L129.184-4.466L129.184-11.594Q129.184-12.848 128.557-13.508Q127.930-14.168 126.720-14.168L126.720-14.168Q125.532-14.168 124.894-13.508Q124.256-12.848 124.256-11.594L124.256-11.594L124.256-4.466Q124.256-3.234 124.894-2.563Q125.532-1.892 126.720-1.892Z M143.880 0.220L143.880 0.220Q143 0.220 142.472-0.297Q141.944-0.814 141.944-1.694L141.944-1.694Q141.944-2.596 142.472-3.135Q143-3.674 143.880-3.674L143.880-3.674Q144.782-3.674 145.299-3.135Q145.816-2.596 145.816-1.694L145.816-1.694Q145.816-0.814 145.299-0.297Q144.782 0.220 143.880 0.220Z M161.128 0.220L161.128 0.220Q159.632 0.220 158.499-0.341Q157.366-0.902 156.761-1.969Q156.156-3.036 156.156-4.466L156.156-4.466L156.156-7.634Q156.156-9.086 156.761-10.142Q157.366-11.198 158.499-11.759Q159.632-12.320 161.128-12.320L161.128-12.320Q163.306-12.320 164.626-11.176Q165.946-10.032 166.012-8.052L166.012-8.052L163.636-8.052Q163.570-9.086 162.910-9.658Q162.250-10.230 161.128-10.230L161.128-10.230Q159.918-10.230 159.214-9.559Q158.510-8.888 158.510-7.656L158.510-7.656L158.510-4.466Q158.510-3.234 159.214-2.552Q159.918-1.870 161.128-1.870L161.128-1.870Q162.250-1.870 162.910-2.442Q163.570-3.014 163.636-4.048L163.636-4.048L166.012-4.048Q165.946-2.068 164.626-0.924Q163.306 0.220 161.128 0.220Z M178.200 0.198L178.200 0.198Q176.704 0.198 175.604-0.374Q174.504-0.946 173.910-2.002Q173.316-3.058 173.316-4.488L173.316-4.488L173.316-7.612Q173.316-9.064 173.910-10.109Q174.504-11.154 175.604-11.726Q176.704-12.298 178.200-12.298L178.200-12.298Q179.696-12.298 180.796-11.726Q181.896-11.154 182.490-10.109Q183.084-9.064 183.084-7.612L183.084-7.612L183.084-4.488Q183.084-3.058 182.490-2.002Q181.896-0.946 180.796-0.374Q179.696 0.198 178.200 0.198ZM178.200-1.892L178.200-1.892Q179.410-1.892 180.070-2.563Q180.730-3.234 180.730-4.488L180.730-4.488L180.730-7.612Q180.730-8.888 180.070-9.548Q179.410-10.208 178.200-10.208L178.200-10.208Q177.012-10.208 176.341-9.548Q175.670-8.888 175.670-7.612L175.670-7.612L175.670-4.488Q175.670-3.234 176.341-2.563Q177.012-1.892 178.200-1.892Z M192.192 0L190.058 0L190.058-12.100L192.038-12.100L192.038-10.560L192.170-10.560Q192.280-11.264 192.698-11.726L192.698-11.726Q193.248-12.320 194.172-12.320L194.172-12.320Q195.162-12.320 195.712-11.550L195.712-11.550Q195.998-11.132 196.130-10.560L196.130-10.560L196.218-10.560Q196.328-11.264 196.768-11.726L196.768-11.726Q197.318-12.320 198.264-12.320L198.264-12.320Q199.386-12.320 200.024-11.473Q200.662-10.626 200.662-9.218L200.662-9.218L200.662 0L198.550 0L198.550-9.152Q198.550-9.834 198.253-10.208Q197.956-10.582 197.406-10.582Q196.856-10.582 196.559-10.219Q196.262-9.856 196.262-9.174L196.262-9.174L196.262 0L194.480 0L194.480-9.152Q194.480-9.856 194.172-10.219Q193.864-10.582 193.292-10.582L193.292-10.582Q192.742-10.582 192.467-10.219Q192.192-9.856 192.192-9.174L192.192-9.174L192.192 0Z" fill="rgba(245,243,238,0.55)"></path></g></svg>